<svg width="87" height="71" viewBox="0 0 87 71" fill="none" xmlns="http://www.w3.org/2000/svg">
<path d="M17.787 24.097C17.7273 24.4672 17.6974 24.9024 17.6974 25.3976C17.6974 29.3546 19.1747 33.8018 22.1243 38.7442L24.1537 42.266C26.3671 45.8527 27.4713 49.3144 27.4713 52.6461C27.4713 55.7376 26.6108 58.2989 24.8898 60.3399C23.1639 62.3809 20.8957 63.3964 18.0705 63.3964C14.8722 63.3964 12.1067 61.9757 9.77388 59.1343C7.44108 56.2929 6.2722 52.7111 6.2722 48.384C6.2722 45.0473 7.10285 41.4656 8.76416 37.6337C10.4205 33.8068 13.4646 28.6743 17.8865 22.2461C17.8865 23.1115 17.8516 23.7318 17.792 24.097M32.8084 0.000119654C10.9378 18.6643 0 35.0974 0 49.3144C0 55.7376 1.93488 60.9652 5.80464 64.9771C9.6744 68.9991 14.6235 71.0051 20.647 71.0051C24.2084 71.0051 27.4664 70.1697 30.4159 68.4989C33.3655 66.8281 35.6685 64.607 37.3298 61.8256C38.9911 59.0442 39.8168 55.9277 39.8168 52.461C39.8168 48.0088 38.0361 43.3765 34.4747 38.5591L30.6049 33.3666C28.0284 30.0299 26.7352 26.5082 26.7352 22.7964C26.7352 20.2051 27.4116 17.4537 28.7646 14.5473C30.1125 11.6409 32.51 7.71893 35.952 2.77649L32.8184 -0.00488281L32.8084 0.000119654Z" fill="#ACCEDB"/>
<path d="M64.9752 24.097C64.9155 24.4672 64.8857 24.9024 64.8857 25.3976C64.8857 29.3546 66.363 33.8018 69.3125 38.7442L71.3419 42.266C73.5553 45.8527 74.6596 49.3144 74.6596 52.6461C74.6596 55.7376 73.7991 58.2989 72.0781 60.3399C70.3521 62.3809 68.0839 63.3964 65.2587 63.3964C62.0604 63.3964 59.2949 61.9757 56.9621 59.1343C54.6293 56.2929 53.4604 52.7111 53.4604 48.384C53.4604 45.0473 54.2911 41.4656 55.9474 37.6337C57.6087 33.8068 60.6478 28.6743 65.0747 22.2461C65.0747 23.1115 65.0399 23.7318 64.9802 24.097M79.9966 0.000119654C58.1211 18.6643 47.1882 35.0974 47.1882 49.3144C47.1882 55.7376 49.1231 60.9652 52.9929 64.9771C56.8626 68.9991 61.8117 71.0051 67.8303 71.0051C71.3966 71.0051 74.6546 70.1697 77.6042 68.4989C80.5537 66.8281 82.8567 64.607 84.518 61.8256C86.1793 59.0442 87.005 55.9277 87.005 52.461C87.005 48.0088 85.2243 43.3765 81.6629 38.5591L77.7932 33.3666C75.2166 30.0299 73.9234 26.5082 73.9234 22.7964C73.9234 20.2051 74.5999 17.4537 75.9528 14.5473C77.3007 11.6409 79.6982 7.71893 83.1402 2.77649L80.0066 -0.00488281L79.9966 0.000119654Z" fill="#ACCEDB"/>
</svg>
